<svg xmlns="http://www.w3.org/2000/svg" xmlns:xlink="http://www.w3.org/1999/xlink" width="1920" zoomAndPan="magnify" viewBox="0 0 1440 1439.999935" height="1920" preserveAspectRatio="xMidYMid meet" version="1.0"><defs><clipPath id="ee9ea8fc04"><path d="M 1 64.800781 L 1439 64.800781 L 1439 1375.050781 L 1 1375.050781 Z M 1 64.800781 " clip-rule="nonzero"/></clipPath></defs><g clip-path="url(#ee9ea8fc04)"><path fill="#8c52ff" d="M 1400.492188 1375.199219 L 39.507812 1375.199219 C 18.238281 1375.199219 1 1357.960938 1 1336.6875 L 1 103.300781 C 1 82.03125 18.238281 64.789062 39.507812 64.789062 L 1400.480469 64.789062 C 1421.753906 64.789062 1438.992188 82.039062 1438.992188 103.300781 L 1438.992188 1336.6875 C 1438.992188 1357.960938 1421.753906 1375.199219 1400.480469 1375.199219 Z M 78.03125 1298.179688 L 1361.980469 1298.179688 L 1361.980469 141.820312 L 78.03125 141.820312 Z M 78.03125 1298.179688 " fill-opacity="1" fill-rule="nonzero"/></g><path fill="#8c52ff" d="M 1292.363281 373.785156 L 147.636719 373.785156 C 126.363281 373.785156 109.125 356.535156 109.125 335.273438 C 109.125 314.011719 126.363281 296.761719 147.636719 296.761719 L 1292.363281 296.761719 C 1313.636719 296.761719 1330.875 314.011719 1330.875 335.273438 C 1330.875 356.535156 1313.636719 373.785156 1292.363281 373.785156 Z M 1292.363281 373.785156 " fill-opacity="1" fill-rule="nonzero"/><path fill="#8c52ff" d="M 1292.363281 261.808594 L 1116.753906 261.808594 C 1095.484375 261.808594 1078.246094 244.558594 1078.246094 223.296875 C 1078.246094 202.035156 1095.484375 184.785156 1116.753906 184.785156 L 1292.363281 184.785156 C 1313.636719 184.785156 1330.875 202.035156 1330.875 223.296875 C 1330.875 244.558594 1313.636719 261.808594 1292.363281 261.808594 Z M 1292.363281 261.808594 " fill-opacity="1" fill-rule="nonzero"/><path fill="#8c52ff" d="M 239.992188 261.808594 L 147.636719 261.808594 C 126.363281 261.808594 109.125 244.558594 109.125 223.296875 C 109.125 202.035156 126.363281 184.785156 147.636719 184.785156 L 239.992188 184.785156 C 261.261719 184.785156 278.5 202.035156 278.5 223.296875 C 278.5 244.558594 261.261719 261.808594 239.992188 261.808594 Z M 239.992188 261.808594 " fill-opacity="1" fill-rule="nonzero"/><path fill="#8c52ff" d="M 494.078125 1065.328125 C 484.214844 1065.328125 474.363281 1061.570312 466.839844 1054.042969 L 269.445312 856.652344 C 254.40625 841.613281 254.40625 817.226562 269.445312 802.1875 L 466.839844 604.792969 C 481.886719 589.753906 506.257812 589.753906 521.304688 604.792969 C 536.34375 619.832031 536.34375 644.21875 521.304688 659.257812 L 351.140625 829.421875 L 521.304688 999.585938 C 536.34375 1014.625 536.34375 1039.015625 521.304688 1054.054688 C 513.78125 1061.570312 503.929688 1065.335938 494.066406 1065.335938 Z M 494.078125 1065.328125 " fill-opacity="1" fill-rule="nonzero"/><path fill="#8c52ff" d="M 945.933594 1078.449219 C 936.070312 1078.449219 926.21875 1074.691406 918.695312 1067.167969 C 903.65625 1052.128906 903.65625 1027.742188 918.695312 1012.703125 L 1088.859375 842.539062 L 918.695312 672.375 C 903.65625 657.335938 903.65625 632.949219 918.695312 617.90625 C 933.742188 602.867188 958.113281 602.867188 973.160156 617.90625 L 1170.554688 815.300781 C 1185.59375 830.339844 1185.59375 854.726562 1170.554688 869.765625 L 973.160156 1067.167969 C 965.644531 1074.683594 955.785156 1078.449219 945.921875 1078.449219 Z M 945.933594 1078.449219 " fill-opacity="1" fill-rule="nonzero"/><path fill="#8c52ff" d="M 628.050781 1127.132812 C 623.675781 1127.132812 619.234375 1126.390625 614.878906 1124.808594 C 594.890625 1117.53125 584.589844 1095.433594 591.855469 1075.4375 L 775.757812 570.160156 C 783.035156 550.171875 805.105469 539.859375 825.128906 547.136719 C 845.117188 554.414062 855.417969 576.511719 848.152344 596.5 L 664.25 1101.777344 C 658.558594 1117.410156 643.785156 1127.125 628.050781 1127.125 Z M 628.050781 1127.132812 " fill-opacity="1" fill-rule="nonzero"/></svg>